# xmcd
# 
# Track frame offsets:
#     150
#     16752
#     37542
#     57502
#     72145
#     92962
#     109757
#     127160
#     144792
#     164447
#     184145
#     205652
#     221007
#     240217
#     257910
#     278302
#     305590
# 
# Disc length: 4345
# 
# Revision: 14
# Processed by: cddbd v1.5.2PL0 Copyright (c) Steve Scherf et al.
# Submitted via: BonkEnc v1.0.6
# 
DISCID=e510f711
DTITLE=Leonardo - Tempo
DYEAR=2000
DGENRE=Sertaneja
TTITLE0=Incerteza
TTITLE1=Meu Grito De Amor
TTITLE2=Mentira Que Virou Paixão
TTITLE3=Boto Pra Remexer
TTITLE4=Será
TTITLE5=Só O Tempo Vai Dizer
TTITLE6=Dez Segundos Pra Dizer Adeus
TTITLE7=Eu Vou Dar Um Tempo
TTITLE8=Sai Tentação
TTITLE9=Nunca Mais
TTITLE10=120... 150... 200 Km Por Hora
TTITLE11=Namoro Novo
TTITLE12=Mano
TTITLE13=Não Quero Ficar Mais Sozinho
TTITLE14=Na Curva Da Estrada
TTITLE15=Amor De Trem
TTITLE16=Faixa 17 - Chave De Acesso Do Mandic
EXTD=By Alexandre Assi
EXTT0=
EXTT1=(My Shout Of Love)
EXTT2=
EXTT3=
EXTT4=(L'aurora)
EXTT5=
EXTT6=
EXTT7=
EXTT8=
EXTT9=
EXTT10=
EXTT11=
EXTT12=
EXTT13=
EXTT14=
EXTT15=
EXTT16=
PLAYORDER=
